Font-Italic.ufo
<glyph name="quotedbl" format="1">
  <advance width="890"/>
  <unicode hex="0022"/>
  <outline>
    <contour>
      <point x="169" y="930" type="line"/>
      <point x="281" y="930" type="line"/>
      <point x="432" y="1506" type="line"/>
      <point x="227" y="1506" type="line"/>
    </contour>
    <contour>
      <point x="502" y="930" type="line"/>
      <point x="614" y="930" type="line"/>
      <point x="765" y="1506" type="line"/>
      <point x="560" y="1506" type="line"/>
    </contour>
  </outline>
</glyph>
<glyph name="numbersign" format="1">
  <advance width="1284"/>
  <unicode hex="0023"/>
  <outline>
    <contour>
      <point x="53" y="0" type="line"/>
      <point x="231" y="0" type="line"/>
      <point x="398" y="475" type="line"/>
      <point x="696" y="475" type="line"/>
      <point x="526" y="0" type="line"/>
      <point x="704" y="0" type="line"/>
      <point x="871" y="475" type="line"/>
      <point x="1130" y="475" type="line"/>
      <point x="1151" y="594" type="line"/>
      <point x="913" y="594" type="line"/>
      <point x="1025" y="910" type="line"/>
      <point x="1231" y="910" type="line"/>
      <point x="1252" y="1029" type="line"/>
      <point x="1067" y="1029" type="line"/>
      <point x="1214" y="1446" type="line"/>
      <point x="1044" y="1446" type="line"/>
      <point x="895" y="1029" type="line"/>
      <point x="594" y="1029" type="line"/>
      <point x="741" y="1446" type="line"/>
      <point x="571" y="1446" type="line"/>
      <point x="422" y="1029" type="line"/>
      <point x="164" y="1029" type="line"/>
      <point x="143" y="910" type="line"/>
      <point x="379" y="910" type="line"/>
      <point x="266" y="594" type="line"/>
      <point x="63" y="594" type="line"/>
      <point x="42" y="475" type="line"/>
      <point x="223" y="475" type="line"/>
    </contour>
    <contour>
      <point x="440" y="594" type="line"/>
      <point x="552" y="910" type="line"/>
      <point x="852" y="910" type="line"/>
      <point x="739" y="594" type="line"/>
    </contour>
  </outline>
</glyph>
<glyph name="comma" format="1">
  <advance width="641"/>
  <unicode hex="002C"/>
  <outline>
    <contour>
      <point x="227" y="-338" type="line"/>
      <point x="294" y="-284"/>
      <point x="433" y="-141"/>
      <point x="467" y="50" type="curve" smooth="yes"/>
      <point x="499" y="233" type="line"/>
      <point x="242" y="233" type="line"/>
      <point x="201" y="0" type="line"/>
      <point x="342" y="0" type="line"/>
      <point x="319" y="-132"/>
      <point x="210" y="-239"/>
      <point x="153" y="-294" type="curve"/>
    </contour>
  </outline>
</glyph>
<glyph name="hyphen" format="1">
  <advance width="1024"/>
  <unicode hex="002D"/>
  <outline>
    <contour>
      <point x="159" y="499" type="line"/>
      <point x="819" y="499" type="line"/>
      <point x="845" y="642" type="line"/>
      <point x="185" y="642" type="line"/>
    </contour>
    <contour>
      <point x="507" y="567" type="move" name="_mid"/>
    </contour>
  </outline>
</glyph>
<glyph name="slash" format="1">
  <advance width="768"/>
  <unicode hex="002F"/>
  <outline>
    <contour>
      <point x="-69" y="0" type="line"/>
      <point x="118" y="0" type="line"/>
      <point x="837" y="1506" type="line"/>
      <point x="654" y="1506" type="line"/>
    </contour>
  </outline>
</glyph>
<glyph name="one" format="1">
  <advance width="1250"/>
  <unicode hex="0031"/>
  <outline>
    <contour>
      <point x="79" y="0" type="line"/>
      <point x="1035" y="0" type="line"/>
      <point x="1062" y="155" type="line"/>
      <point x="708" y="155" type="line"/>
      <point x="935" y="1446" type="line"/>
      <point x="771" y="1446" type="line"/>
      <point x="334" y="1396" type="line"/>
      <point x="324" y="1237" type="line"/>
      <point x="705" y="1277" type="line"/>
      <point x="507" y="155" type="line"/>
      <point x="106" y="155" type="line"/>
    </contour>
  </outline>
</glyph>
<glyph name="four" format="1">
  <advance width="1250"/>
  <unicode hex="0034"/>
  <outline>
    <contour>
      <point x="656" y="0" type="line"/>
      <point x="823" y="0" type="line"/>
      <point x="884" y="351" type="line"/>
      <point x="1096" y="351" type="line"/>
      <point x="1124" y="506" type="line"/>
      <point x="912" y="506" type="line"/>
      <point x="970" y="837" type="line"/>
      <point x="803" y="837" type="line"/>
      <point x="745" y="506" type="line"/>
      <point x="329" y="506" type="line"/>
      <point x="1008" y="1446" type="line"/>
      <point x="799" y="1446" type="line"/>
      <point x="105" y="508" type="line"/>
      <point x="77" y="351" type="line"/>
      <point x="717" y="351" type="line"/>
    </contour>
  </outline>
</glyph>
<glyph name="six" format="1">
  <advance width="1250"/>
  <unicode hex="0036"/>
  <outline>
    <contour>
      <point x="518" y="-22" type="curve" smooth="yes"/>
      <point x="794" y="-22"/>
      <point x="1025" y="104"/>
      <point x="1081" y="422" type="curve" smooth="yes"/>
      <point x="1089" y="467"/>
      <point x="1093" y="508"/>
      <point x="1093" y="546" type="curve" smooth="yes"/>
      <point x="1093" y="784"/>
      <point x="939" y="878"/>
      <point x="683" y="878" type="curve" smooth="yes"/>
      <point x="623" y="878"/>
      <point x="545" y="860"/>
      <point x="499" y="841" type="curve"/>
      <point x="962" y="1446" type="line"/>
      <point x="762" y="1446" type="line"/>
      <point x="352" y="897" type="line"/>
      <point x="228" y="728"/>
      <point x="153" y="568"/>
      <point x="128" y="426" type="curve" smooth="yes"/>
      <point x="121" y="385"/>
      <point x="117" y="346"/>
      <point x="117" y="311" type="curve" smooth="yes"/>
      <point x="117" y="75"/>
      <point x="278" y="-22"/>
    </contour>
    <contour>
      <point x="549" y="140" type="curve" smooth="yes"/>
      <point x="396" y="140"/>
      <point x="305" y="181"/>
      <point x="305" y="332" type="curve" smooth="yes"/>
      <point x="305" y="359"/>
      <point x="308" y="390"/>
      <point x="314" y="425" type="curve" smooth="yes"/>
      <point x="353" y="646"/>
      <point x="470" y="715"/>
      <point x="651" y="715" type="curve" smooth="yes"/>
      <point x="803" y="715"/>
      <point x="903" y="681"/>
      <point x="903" y="519" type="curve" smooth="yes"/>
      <point x="903" y="491"/>
      <point x="900" y="459"/>
      <point x="894" y="422" type="curve" smooth="yes"/>
      <point x="854" y="197"/>
      <point x="729" y="140"/>
    </contour>
  </outline>
</glyph>
<glyph name="nine" format="1">
  <advance width="1250"/>
  <unicode hex="0039"/>
  <outline>
    <contour>
      <point x="322" y="0" type="line"/>
      <point x="522" y="0" type="line"/>
      <point x="932" y="549" type="line"/>
      <point x="1056" y="718"/>
      <point x="1131" y="878"/>
      <point x="1156" y="1020" type="curve" smooth="yes"/>
      <point x="1163" y="1061"/>
      <point x="1167" y="1100"/>
      <point x="1167" y="1135" type="curve" smooth="yes"/>
      <point x="1167" y="1371"/>
      <point x="1006" y="1468"/>
      <point x="766" y="1468" type="curve" smooth="yes"/>
      <point x="490" y="1468"/>
      <point x="258" y="1342"/>
      <point x="202" y="1024" type="curve" smooth="yes"/>
      <point x="194" y="979"/>
      <point x="190" y="939"/>
      <point x="190" y="901" type="curve" smooth="yes"/>
      <point x="190" y="663"/>
      <point x="345" y="568"/>
      <point x="601" y="568" type="curve" smooth="yes"/>
      <point x="661" y="568"/>
      <point x="739" y="586"/>
      <point x="785" y="605" type="curve"/>
    </contour>
    <contour>
      <point x="633" y="731" type="curve" smooth="yes"/>
      <point x="481" y="731"/>
      <point x="380" y="765"/>
      <point x="380" y="927" type="curve" smooth="yes"/>
      <point x="380" y="955"/>
      <point x="383" y="988"/>
      <point x="389" y="1024" type="curve" smooth="yes"/>
      <point x="429" y="1249"/>
      <point x="555" y="1306"/>
      <point x="735" y="1306" type="curve" smooth="yes"/>
      <point x="888" y="1306"/>
      <point x="979" y="1265"/>
      <point x="979" y="1114" type="curve" smooth="yes"/>
      <point x="979" y="1087"/>
      <point x="976" y="1056"/>
      <point x="970" y="1021" type="curve" smooth="yes"/>
      <point x="931" y="800"/>
      <point x="814" y="731"/>
    </contour>
  </outline>
</glyph>
<glyph name="less" format="1">
  <advance width="1250"/>
  <unicode hex="003C"/>
  <outline>
    <contour>
      <point x="941" y="0" type="line"/>
      <point x="978" y="209" type="line"/>
      <point x="311" y="573" type="line"/>
      <point x="1107" y="941" type="line"/>
      <point x="1143" y="1144" type="line"/>
      <point x="174" y="672" type="line"/>
      <point x="138" y="471" type="line"/>
    </contour>
  </outline>
</glyph>
<glyph name="equal" format="1">
  <advance width="1250"/>
  <unicode hex="003D"/>
  <outline>
    <contour>
      <point x="181" y="467" type="line"/>
      <point x="983" y="467" type="line"/>
      <point x="1009" y="615" type="line"/>
      <point x="207" y="615" type="line"/>
    </contour>
    <contour>
      <point x="241" y="805" type="line"/>
      <point x="1043" y="805" type="line"/>
      <point x="1069" y="953" type="line"/>
      <point x="267" y="953" type="line"/>
    </contour>
  </outline>
</glyph>
<glyph name="at" format="1">
  <advance width="2048"/>
  <unicode hex="0040"/>
  <outline>
    <contour>
      <point x="951" y="-258" type="curve" smooth="yes"/>
      <point x="1174" y="-258"/>
      <point x="1412" y="-207"/>
      <point x="1535" y="-158" type="curve"/>
      <point x="1510" y="-17" type="line"/>
      <point x="1401" y="-61"/>
      <point x="1191" y="-111"/>
      <point x="976" y="-111" type="curve" smooth="yes"/>
      <point x="677" y="-111"/>
      <point x="489" y="-12"/>
      <point x="489" y="213" type="curve" smooth="yes"/>
      <point x="489" y="240"/>
      <point x="492" y="268"/>
      <point x="497" y="298" type="curve" smooth="yes"/>
      <point x="609" y="936" type="line" smooth="yes"/>
      <point x="659" y="1222"/>
      <point x="856" y="1331"/>
      <point x="1189" y="1331" type="curve" smooth="yes"/>
      <point x="1497" y="1331"/>
      <point x="1573" y="1241"/>
      <point x="1573" y="1096" type="curve" smooth="yes"/>
      <point x="1573" y="1053"/>
      <point x="1566" y="1006"/>
      <point x="1557" y="955" type="curve" smooth="yes"/>
      <point x="1556" y="955"/>
      <point x="1383" y="915"/>
      <point x="1245" y="883" type="curve" smooth="yes"/>
      <point x="842" y="790"/>
      <point x="757" y="689"/>
      <point x="730" y="533" type="curve" smooth="yes"/>
      <point x="726" y="511"/>
      <point x="724" y="489"/>
      <point x="724" y="468" type="curve" smooth="yes"/>
      <point x="724" y="315"/>
      <point x="827" y="195"/>
      <point x="1047" y="195" type="curve" smooth="yes"/>
      <point x="1264" y="195"/>
      <point x="1412" y="296"/>
      <point x="1479" y="376" type="curve"/>
      <point x="1490" y="294"/>
      <point x="1504" y="212"/>
      <point x="1661" y="212" type="curve" smooth="yes"/>
      <point x="1701" y="212" type="line"/>
      <point x="1747" y="360" type="line"/>
      <point x="1667" y="360"/>
      <point x="1645" y="377"/>
      <point x="1645" y="420" type="curve" smooth="yes"/>
      <point x="1645" y="436"/>
      <point x="1648" y="456"/>
      <point x="1652" y="479" type="curve" smooth="yes"/>
      <point x="1739" y="972" type="line" smooth="yes"/>
      <point x="1748" y="1020"/>
      <point x="1757" y="1076"/>
      <point x="1757" y="1133" type="curve" smooth="yes"/>
      <point x="1757" y="1303"/>
      <point x="1671" y="1483"/>
      <point x="1215" y="1483" type="curve" smooth="yes"/>
      <point x="674" y="1483"/>
      <point x="472" y="1236"/>
      <point x="412" y="895" type="curve" smooth="yes"/>
      <point x="313" y="332" type="line" smooth="yes"/>
      <point x="305" y="288"/>
      <point x="301" y="247"/>
      <point x="301" y="206" type="curve" smooth="yes"/>
      <point x="301" y="-65"/>
      <point x="483" y="-258"/>
    </contour>
    <contour>
      <point x="1105" y="343" type="curve" smooth="yes"/>
      <point x="996" y="343"/>
      <point x="928" y="389"/>
      <point x="928" y="490" type="curve" smooth="yes"/>
      <point x="928" y="505"/>
      <point x="930" y="521"/>
      <point x="933" y="539" type="curve" smooth="yes"/>
      <point x="950" y="636"/>
      <point x="1005" y="692"/>
      <point x="1237" y="749" type="curve" smooth="yes"/>
      <point x="1396" y="788"/>
      <point x="1515" y="816"/>
      <point x="1534" y="825" type="curve"/>
      <point x="1481" y="522" type="line"/>
      <point x="1429" y="412"/>
      <point x="1231" y="343"/>
    </contour>
  </outline>
</glyph>
<glyph name="E" format="1">
  <advance width="1255"/>
  <unicode hex="0045"/>
  <outline>
    <contour>
      <point x="91" y="0" type="line"/>
      <point x="1006" y="0" type="line"/>
      <point x="1032" y="150" type="line"/>
      <point x="318" y="150" type="line"/>
      <point x="410" y="670" type="line"/>
      <point x="1030" y="670" type="line"/>
      <point x="1056" y="820" type="line"/>
      <point x="436" y="820" type="line"/>
      <point x="520" y="1296" type="line"/>
      <point x="1222" y="1296" type="line"/>
      <point x="1248" y="1446" type="line"/>
      <point x="345" y="1446" type="line"/>
    </contour>
    <contour>
      <point x="803" y="1446" type="move" name="top"/>
    </contour>
    <contour>
      <point x="717" y="0" type="move" name="ogonek"/>
    </contour>
    <contour>
      <point x="501" y="0" type="move" name="bot"/>
    </contour>
  </outline>
</glyph>
<glyph name="H" format="1">
  <advance width="1528"/>
  <unicode hex="0048"/>
  <outline>
    <contour>
      <point x="85" y="0" type="line"/>
      <point x="286" y="0" type="line"/>
      <point x="402" y="659" type="line"/>
      <point x="1104" y="659" type="line"/>
      <point x="988" y="0" type="line"/>
      <point x="1189" y="0" type="line"/>
      <point x="1443" y="1446" type="line"/>
      <point x="1242" y="1446" type="line"/>
      <point x="1130" y="807" type="line"/>
      <point x="428" y="807" type="line"/>
      <point x="540" y="1446" type="line"/>
      <point x="339" y="1446" type="line"/>
    </contour>
    <contour>
      <point x="881" y="1446" type="move" name="top"/>
    </contour>
    <contour>
      <point x="637" y="0" type="move" name="center"/>
    </contour>
  </outline>
</glyph>
<glyph name="L" format="1">
  <advance width="1145"/>
  <unicode hex="004C"/>
  <outline>
    <contour>
      <point x="91" y="0" type="line"/>
      <point x="941" y="0" type="line"/>
      <point x="968" y="155" type="line"/>
      <point x="319" y="155" type="line"/>
      <point x="546" y="1446" type="line"/>
      <point x="345" y="1446" type="line"/>
    </contour>
    <contour>
      <point x="307" y="725" type="move" name="mid"/>
    </contour>
    <contour>
      <point x="722" y="1446" type="move" name="top"/>
    </contour>
    <contour>
      <point x="496" y="0" type="move" name="bot"/>
    </contour>
  </outline>
</glyph>
<glyph name="N" format="1">
  <advance width="1594"/>
  <unicode hex="004E"/>
  <outline>
    <contour>
      <point x="91" y="0" type="line"/>
      <point x="268" y="0" type="line"/>
      <point x="462" y="1104" type="line"/>
      <point x="1070" y="0" type="line"/>
      <point x="1249" y="0" type="line"/>
      <point x="1503" y="1446" type="line"/>
      <point x="1326" y="1446" type="line"/>
      <point x="1123" y="290" type="line"/>
      <point x="498" y="1446" type="line"/>
      <point x="345" y="1446" type="line"/>
    </contour>
    <contour>
      <point x="924" y="1446" type="move" name="top"/>
    </contour>
    <contour>
      <point x="670" y="0" type="move" name="bot"/>
    </contour>
  </outline>
</glyph>
<glyph name="O" format="1">
  <advance width="1546"/>
  <unicode hex="004F"/>
  <outline>
    <contour>
      <point x="679" y="140" type="curve" smooth="yes"/>
      <point x="457" y="140"/>
      <point x="332" y="184"/>
      <point x="332" y="363" type="curve" smooth="yes"/>
      <point x="332" y="390"/>
      <point x="335" y="421"/>
      <point x="341" y="455" type="curve" smooth="yes"/>
      <point x="433" y="978" type="line" smooth="yes"/>
      <point x="478" y="1235"/>
      <point x="631" y="1306"/>
      <point x="885" y="1306" type="curve" smooth="yes"/>
      <point x="1103" y="1306"/>
      <point x="1214" y="1254"/>
      <point x="1214" y="1080" type="curve" smooth="yes"/>
      <point x="1214" y="1050"/>
      <point x="1211" y="1016"/>
      <point x="1204" y="978" type="curve" smooth="yes"/>
      <point x="1112" y="455" type="line" smooth="yes"/>
      <point x="1067" y="199"/>
      <point x="937" y="140"/>
    </contour>
    <contour>
      <point x="651" y="-22" type="curve" smooth="yes"/>
      <point x="1116" y="-22"/>
      <point x="1268" y="203"/>
      <point x="1321" y="500" type="curve" smooth="yes"/>
      <point x="1396" y="928" type="line" smooth="yes"/>
      <point x="1406" y="984"/>
      <point x="1412" y="1037"/>
      <point x="1412" y="1087" type="curve" smooth="yes"/>
      <point x="1412" y="1312"/>
      <point x="1295" y="1468"/>
      <point x="913" y="1468" type="curve" smooth="yes"/>
      <point x="428" y="1468"/>
      <point x="278" y="1247"/>
      <point x="224" y="941" type="curve" smooth="yes"/>
      <point x="144" y="486" type="line" smooth="yes"/>
      <point x="135" y="434"/>
      <point x="130" y="385"/>
      <point x="130" y="339" type="curve" smooth="yes"/>
      <point x="130" y="119"/>
      <point x="251" y="-22"/>
    </contour>
    <contour>
      <point x="909" y="1446" type="move" name="top"/>
    </contour>
    <contour>
      <point x="691" y="0" type="move" name="ogonek"/>
    </contour>
    <contour>
      <point x="655" y="0" type="move" name="bot"/>
    </contour>
  </outline>
</glyph>
<glyph name="Q" format="1">
  <advance width="1542"/>
  <unicode hex="0051"/>
  <outline>
    <contour>
      <point x="781" y="-384" type="line"/>
      <point x="935" y="-308" type="line"/>
      <point x="796" y="-17" type="line"/>
      <point x="1174" y="18"/>
      <point x="1305" y="229"/>
      <point x="1353" y="500" type="curve" smooth="yes"/>
      <point x="1428" y="928" type="line" smooth="yes"/>
      <point x="1438" y="984"/>
      <point x="1444" y="1037"/>
      <point x="1444" y="1087" type="curve" smooth="yes"/>
      <point x="1444" y="1312"/>
      <point x="1327" y="1468"/>
      <point x="945" y="1468" type="curve" smooth="yes"/>
      <point x="460" y="1468"/>
      <point x="310" y="1247"/>
      <point x="256" y="941" type="curve" smooth="yes"/>
      <point x="176" y="486" type="line" smooth="yes"/>
      <point x="167" y="434"/>
      <point x="162" y="385"/>
      <point x="162" y="339" type="curve" smooth="yes"/>
      <point x="162" y="132"/>
      <point x="269" y="-5"/>
      <point x="615" y="-21" type="curve"/>
    </contour>
    <contour>
      <point x="711" y="140" type="curve" smooth="yes"/>
      <point x="489" y="140"/>
      <point x="364" y="184"/>
      <point x="364" y="363" type="curve" smooth="yes"/>
      <point x="364" y="390"/>
      <point x="367" y="421"/>
      <point x="373" y="455" type="curve" smooth="yes"/>
      <point x="465" y="978" type="line" smooth="yes"/>
      <point x="510" y="1235"/>
      <point x="663" y="1306"/>
      <point x="917" y="1306" type="curve" smooth="yes"/>
      <point x="1135" y="1306"/>
      <point x="1246" y="1254"/>
      <point x="1246" y="1080" type="curve" smooth="yes"/>
      <point x="1246" y="1050"/>
      <point x="1243" y="1016"/>
      <point x="1236" y="978" type="curve" smooth="yes"/>
      <point x="1144" y="455" type="line" smooth="yes"/>
      <point x="1099" y="199"/>
      <point x="969" y="140"/>
    </contour>
  </outline>
</glyph>
<glyph name="S" format="1">
  <advance width="1304"/>
  <unicode hex="0053"/>
  <outline>
    <contour>
      <point x="560" y="-22" type="curve" smooth="yes"/>
      <point x="896" y="-22"/>
      <point x="1061" y="139"/>
      <point x="1108" y="406" type="curve" smooth="yes"/>
      <point x="1115" y="444"/>
      <point x="1118" y="479"/>
      <point x="1118" y="510" type="curve" smooth="yes"/>
      <point x="1118" y="657"/>
      <point x="1043" y="730"/>
      <point x="890" y="784" type="curve" smooth="yes"/>
      <point x="547" y="907" type="line" smooth="yes"/>
      <point x="454" y="940"/>
      <point x="425" y="980"/>
      <point x="425" y="1040" type="curve" smooth="yes"/>
      <point x="425" y="1074"/>
      <point x="434" y="1107"/>
      <point x="441" y="1137" type="curve" smooth="yes"/>
      <point x="471" y="1260"/>
      <point x="595" y="1306"/>
      <point x="794" y="1306" type="curve" smooth="yes"/>
      <point x="982" y="1306"/>
      <point x="1099" y="1257"/>
      <point x="1178" y="1210" type="curve"/>
      <point x="1255" y="1367" type="line"/>
      <point x="1172" y="1425"/>
      <point x="1034" y="1468"/>
      <point x="787" y="1468" type="curve" smooth="yes"/>
      <point x="510" y="1468"/>
      <point x="284" y="1366"/>
      <point x="236" y="1089" type="curve" smooth="yes"/>
      <point x="230" y="1055"/>
      <point x="227" y="1025"/>
      <point x="227" y="997" type="curve" smooth="yes"/>
      <point x="227" y="862"/>
      <point x="299" y="791"/>
      <point x="455" y="736" type="curve" smooth="yes"/>
      <point x="784" y="620" type="line"/>
      <point x="899" y="581"/>
      <point x="932" y="537"/>
      <point x="932" y="477" type="curve" smooth="yes"/>
      <point x="932" y="464"/>
      <point x="930" y="451"/>
      <point x="928" y="437" type="curve" smooth="yes"/>
      <point x="891" y="229"/>
      <point x="819" y="140"/>
      <point x="584" y="140" type="curve" smooth="yes"/>
      <point x="407" y="140"/>
      <point x="233" y="202"/>
      <point x="135" y="267" type="curve"/>
      <point x="36" y="113" type="line"/>
      <point x="173" y="25"/>
      <point x="345" y="-22"/>
    </contour>
    <contour>
      <point x="803" y="1446" type="move" name="top"/>
    </contour>
    <contour>
      <point x="535" y="0" type="move" name="bot"/>
    </contour>
  </outline>
</glyph>
<glyph name="U" format="1">
  <advance width="1538"/>
  <unicode hex="0055"/>
  <outline>
    <contour>
      <point x="650" y="-22" type="curve" smooth="yes"/>
      <point x="1103" y="-22"/>
      <point x="1249" y="205"/>
      <point x="1296" y="473" type="curve" smooth="yes"/>
      <point x="1467" y="1446" type="line"/>
      <point x="1265" y="1446" type="line"/>
      <point x="1090" y="452" type="line" smooth="yes"/>
      <point x="1043" y="186"/>
      <point x="881" y="140"/>
      <point x="678" y="140" type="curve" smooth="yes"/>
      <point x="500" y="140"/>
      <point x="348" y="176"/>
      <point x="348" y="369" type="curve" smooth="yes"/>
      <point x="348" y="394"/>
      <point x="351" y="421"/>
      <point x="356" y="452" type="curve" smooth="yes"/>
      <point x="531" y="1446" type="line"/>
      <point x="329" y="1446" type="line"/>
      <point x="158" y="473" type="line" smooth="yes"/>
      <point x="150" y="427"/>
      <point x="145" y="382"/>
      <point x="145" y="339" type="curve" smooth="yes"/>
      <point x="145" y="132"/>
      <point x="258" y="-22"/>
    </contour>
    <contour>
      <point x="908" y="1446" type="move" name="top"/>
    </contour>
    <contour>
      <point x="715" y="0" type="move" name="ogonek"/>
    </contour>
  </outline>
</glyph>
<glyph name="V" format="1">
  <advance width="1386"/>
  <unicode hex="0056"/>
  <outline>
    <contour>
      <point x="475" y="0" type="line"/>
      <point x="652" y="0" type="line"/>
      <point x="1427" y="1446" type="line"/>
      <point x="1218" y="1446" type="line"/>
      <point x="616" y="294" type="line"/>
      <point x="420" y="1446" type="line"/>
      <point x="213" y="1446" type="line"/>
    </contour>
  </outline>
</glyph>
<glyph name="backslash" format="1">
  <advance width="768"/>
  <unicode hex="005C"/>
  <outline>
    <contour>
      <point x="388" y="0" type="line"/>
      <point x="571" y="0" type="line"/>
      <point x="384" y="1506" type="line"/>
      <point x="197" y="1506" type="line"/>
    </contour>
  </outline>
</glyph>
<glyph name="underscore" format="1">
  <advance width="929"/>
  <unicode hex="005F"/>
  <outline>
    <contour>
      <point x="1" y="-104" type="line"/>
      <point x="902" y="-104" type="line"/>
      <point x="928" y="46" type="line"/>
      <point x="27" y="46" type="line"/>
    </contour>
  </outline>
</glyph>
<glyph name="a" format="1">
  <advance width="1172"/>
  <unicode hex="0061"/>
  <outline>
    <contour>
      <point x="98" y="269" type="curve" smooth="yes"/>
      <point x="93" y="242"/>
      <point x="91" y="216"/>
      <point x="91" y="192" type="curve" smooth="yes"/>
      <point x="91" y="61"/>
      <point x="165" y="-22"/>
      <point x="354" y="-22" type="curve" smooth="yes"/>
      <point x="549" y="-22"/>
      <point x="669" y="78"/>
      <point x="729" y="150" type="curve"/>
      <point x="744" y="50"/>
      <point x="784" y="-8"/>
      <point x="925" y="-8" type="curve" smooth="yes"/>
      <point x="963" y="-8" type="line"/>
      <point x="1011" y="136" type="line"/>
      <point x="942" y="136"/>
      <point x="916" y="148"/>
      <point x="916" y="202" type="curve" smooth="yes"/>
      <point x="916" y="219"/>
      <point x="918" y="241"/>
      <point x="923" y="268" type="curve" smooth="yes"/>
      <point x="1003" y="720" type="line" smooth="yes"/>
      <point x="1009" y="755"/>
      <point x="1012" y="788"/>
      <point x="1012" y="819" type="curve" smooth="yes"/>
      <point x="1012" y="980"/>
      <point x="924" y="1080"/>
      <point x="689" y="1080" type="curve" smooth="yes"/>
      <point x="411" y="1080"/>
      <point x="255" y="988"/>
      <point x="218" y="779" type="curve"/>
      <point x="210" y="731" type="line"/>
      <point x="391" y="731" type="line"/>
      <point x="399" y="778" type="line" smooth="yes"/>
      <point x="414" y="863"/>
      <point x="445" y="936"/>
      <point x="658" y="936" type="curve" smooth="yes"/>
      <point x="795" y="936"/>
      <point x="830" y="889"/>
      <point x="830" y="825" type="curve" smooth="yes"/>
      <point x="830" y="810"/>
      <point x="828" y="794"/>
      <point x="825" y="778" type="curve" smooth="yes"/>
      <point x="812" y="707"/>
      <point x="796" y="682"/>
      <point x="751" y="667" type="curve" smooth="yes"/>
      <point x="516" y="586" type="line" smooth="yes"/>
      <point x="216" y="483"/>
      <point x="123" y="412"/>
    </contour>
    <contour>
      <point x="415" y="118" type="curve" smooth="yes"/>
      <point x="309" y="118"/>
      <point x="272" y="145"/>
      <point x="272" y="215" type="curve" smooth="yes"/>
      <point x="272" y="232"/>
      <point x="274" y="251"/>
      <point x="278" y="273" type="curve" smooth="yes"/>
      <point x="293" y="361"/>
      <point x="362" y="405"/>
      <point x="531" y="466" type="curve" smooth="yes"/>
      <point x="786" y="557" type="line"/>
      <point x="740" y="297" type="line"/>
      <point x="693" y="199"/>
      <point x="528" y="118"/>
    </contour>
    <contour>
      <point x="678" y="1060" type="move" name="top"/>
    </contour>
    <contour>
      <point x="913" y="10" type="move" name="ogonek"/>
    </contour>
  </outline>
</glyph>
<glyph name="c" format="1">
  <advance width="1106"/>
  <unicode hex="0063"/>
  <outline>
    <contour>
      <point x="482" y="-22" type="curve" smooth="yes"/>
      <point x="770" y="-22"/>
      <point x="887" y="66"/>
      <point x="951" y="310" type="curve"/>
      <point x="777" y="310" type="line"/>
      <point x="735" y="150"/>
      <point x="693" y="122"/>
      <point x="507" y="122" type="curve" smooth="yes"/>
      <point x="374" y="122"/>
      <point x="296" y="163"/>
      <point x="296" y="274" type="curve" smooth="yes"/>
      <point x="296" y="290"/>
      <point x="298" y="309"/>
      <point x="301" y="328" type="curve" smooth="yes"/>
      <point x="374" y="743" type="line" smooth="yes"/>
      <point x="399" y="884"/>
      <point x="489" y="936"/>
      <point x="651" y="936" type="curve" smooth="yes"/>
      <point x="793" y="936"/>
      <point x="854" y="913"/>
      <point x="854" y="802" type="curve" smooth="yes"/>
      <point x="854" y="776"/>
      <point x="851" y="744"/>
      <point x="844" y="707" type="curve"/>
      <point x="1026" y="724" type="line"/>
      <point x="1033" y="761"/>
      <point x="1036" y="794"/>
      <point x="1036" y="824" type="curve" smooth="yes"/>
      <point x="1036" y="1026"/>
      <point x="892" y="1080"/>
      <point x="671" y="1080" type="curve" smooth="yes"/>
      <point x="408" y="1080"/>
      <point x="222" y="948"/>
      <point x="187" y="748" type="curve" smooth="yes"/>
      <point x="115" y="344" type="line" smooth="yes"/>
      <point x="110" y="318"/>
      <point x="108" y="292"/>
      <point x="108" y="267" type="curve" smooth="yes"/>
      <point x="108" y="106"/>
      <point x="208" y="-22"/>
    </contour>
    <contour>
      <point x="688" y="1060" type="move" name="top"/>
    </contour>
    <contour>
      <point x="466" y="0" type="move" name="bot"/>
    </contour>
  </outline>
</glyph>
<glyph name="f" format="1">
  <advance width="782"/>
  <unicode hex="0066"/>
  <outline>
    <contour>
      <point x="146" y="0" type="line"/>
      <point x="334" y="0" type="line"/>
      <point x="496" y="918" type="line"/>
      <point x="753" y="918" type="line"/>
      <point x="778" y="1060" type="line"/>
      <point x="521" y="1060" type="line"/>
      <point x="553" y="1239" type="line" smooth="yes"/>
      <point x="566" y="1315"/>
      <point x="614" y="1372"/>
      <point x="729" y="1372" type="curve" smooth="yes"/>
      <point x="845" y="1372" type="line"/>
      <point x="857" y="1505" type="line"/>
      <point x="738" y="1505" type="line" smooth="yes"/>
      <point x="520" y="1505"/>
      <point x="397" y="1419"/>
      <point x="362" y="1221" type="curve" smooth="yes"/>
      <point x="333" y="1060" type="line"/>
      <point x="156" y="1060" type="line"/>
      <point x="131" y="918" type="line"/>
      <point x="308" y="918" type="line"/>
    </contour>
    <contour>
      <point x="510" y="1446" type="move" name="top"/>
    </contour>
  </outline>
</glyph>
<glyph name="h" format="1">
  <advance width="1224"/>
  <unicode hex="0068"/>
  <outline>
    <contour>
      <point x="53" y="0" type="line"/>
      <point x="241" y="0" type="line"/>
      <point x="375" y="758" type="line" smooth="yes"/>
      <point x="393" y="860"/>
      <point x="490" y="936"/>
      <point x="674" y="936" type="curve" smooth="yes"/>
      <point x="792" y="936"/>
      <point x="870" y="897"/>
      <point x="870" y="812" type="curve" smooth="yes"/>
      <point x="870" y="803"/>
      <point x="869" y="793"/>
      <point x="867" y="783" type="curve" smooth="yes"/>
      <point x="729" y="0" type="line"/>
      <point x="917" y="0" type="line"/>
      <point x="1054" y="773" type="line" smooth="yes"/>
      <point x="1058" y="795"/>
      <point x="1060" y="817"/>
      <point x="1060" y="838" type="curve" smooth="yes"/>
      <point x="1060" y="975"/>
      <point x="974" y="1080"/>
      <point x="748" y="1080" type="curve" smooth="yes"/>
      <point x="594" y="1080"/>
      <point x="485" y="1032"/>
      <point x="411" y="960" type="curve"/>
      <point x="507" y="1505" type="line"/>
      <point x="319" y="1505" type="line"/>
    </contour>
    <contour>
      <point x="741" y="1060" type="move" name="top"/>
    </contour>
    <contour>
      <point x="377" y="1276" type="move" name="mid"/>
    </contour>
  </outline>
</glyph>
<glyph name="l" format="1">
  <advance width="692"/>
  <unicode hex="006C"/>
  <outline>
    <contour>
      <point x="397" y="-8" type="curve" smooth="yes"/>
      <point x="451" y="-8" type="line"/>
      <point x="500" y="150" type="line"/>
      <point x="467" y="150" type="line" smooth="yes"/>
      <point x="345" y="150"/>
      <point x="298" y="170"/>
      <point x="298" y="260" type="curve" smooth="yes"/>
      <point x="298" y="286"/>
      <point x="302" y="318"/>
      <point x="309" y="356" type="curve" smooth="yes"/>
      <point x="511" y="1505" type="line"/>
      <point x="323" y="1505" type="line"/>
      <point x="121" y="358" type="line" smooth="yes"/>
      <point x="111" y="303"/>
      <point x="107" y="255"/>
      <point x="107" y="215" type="curve" smooth="yes"/>
      <point x="107" y="31"/>
      <point x="207" y="-8"/>
    </contour>
    <contour>
      <point x="435" y="1506" type="move" name="top"/>
    </contour>
    <contour>
      <point x="289" y="1060" type="move" name="caron.alt"/>
    </contour>
    <contour>
      <point x="248" y="0" type="move" name="bot"/>
    </contour>
  </outline>
</glyph>
<glyph name="m" format="1">
  <advance width="1860"/>
  <unicode hex="006D"/>
  <outline>
    <contour>
      <point x="91" y="0" type="line"/>
      <point x="279" y="0" type="line"/>
      <point x="412" y="755" type="line" smooth="yes"/>
      <point x="430" y="857"/>
      <point x="516" y="936"/>
      <point x="700" y="936" type="curve" smooth="yes"/>
      <point x="817" y="936"/>
      <point x="889" y="896"/>
      <point x="889" y="812" type="curve" smooth="yes"/>
      <point x="889" y="802"/>
      <point x="888" y="792"/>
      <point x="886" y="781" type="curve" smooth="yes"/>
      <point x="749" y="0" type="line"/>
      <point x="937" y="0" type="line"/>
      <point x="1070" y="755" type="line" smooth="yes"/>
      <point x="1088" y="857"/>
      <point x="1174" y="936"/>
      <point x="1358" y="936" type="curve" smooth="yes"/>
      <point x="1474" y="936"/>
      <point x="1541" y="897"/>
      <point x="1541" y="814" type="curve" smooth="yes"/>
      <point x="1541" y="804"/>
      <point x="1540" y="793"/>
      <point x="1538" y="781" type="curve" smooth="yes"/>
      <point x="1401" y="0" type="line"/>
      <point x="1589" y="0" type="line"/>
      <point x="1725" y="770" type="line" smooth="yes"/>
      <point x="1729" y="795"/>
      <point x="1732" y="819"/>
      <point x="1732" y="842" type="curve" smooth="yes"/>
      <point x="1732" y="977"/>
      <point x="1654" y="1080"/>
      <point x="1431" y="1080" type="curve" smooth="yes"/>
      <point x="1277" y="1080"/>
      <point x="1169" y="1031"/>
      <point x="1060" y="941" type="curve"/>
      <point x="1024" y="1024"/>
      <point x="937" y="1080"/>
      <point x="773" y="1080" type="curve" smooth="yes"/>
      <point x="619" y="1080"/>
      <point x="522" y="1029"/>
      <point x="448" y="957" type="curve"/>
      <point x="466" y="1060" type="line"/>
      <point x="278" y="1060" type="line"/>
    </contour>
    <contour>
      <point x="1086" y="1060" type="move" name="top"/>
    </contour>
  </outline>
</glyph>
<glyph name="r" format="1">
  <advance width="798"/>
  <unicode hex="0072"/>
  <outline>
    <contour>
      <point x="91" y="0" type="line"/>
      <point x="279" y="0" type="line"/>
      <point x="407" y="722" type="line" smooth="yes"/>
      <point x="425" y="828"/>
      <point x="621" y="914"/>
      <point x="802" y="914" type="curve"/>
      <point x="837" y="1075" type="line"/>
      <point x="697" y="1075"/>
      <point x="511" y="1027"/>
      <point x="436" y="890" type="curve"/>
      <point x="466" y="1060" type="line"/>
      <point x="278" y="1060" type="line"/>
    </contour>
    <contour>
      <point x="569" y="1060" type="move" name="top"/>
    </contour>
    <contour>
      <point x="191" y="0" type="move" name="bot"/>
    </contour>
  </outline>
</glyph>
<glyph name="t" format="1">
  <advance width="832"/>
  <unicode hex="0074"/>
  <outline>
    <contour>
      <point x="553" y="-8" type="curve" smooth="yes"/>
      <point x="581" y="-8" type="line"/>
      <point x="629" y="150" type="line"/>
      <point x="608" y="150" type="line" smooth="yes"/>
      <point x="451" y="150"/>
      <point x="374" y="169"/>
      <point x="374" y="268" type="curve" smooth="yes"/>
      <point x="374" y="282"/>
      <point x="376" y="298"/>
      <point x="379" y="315" type="curve" smooth="yes"/>
      <point x="485" y="918" type="line"/>
      <point x="751" y="918" type="line"/>
      <point x="776" y="1060" type="line"/>
      <point x="510" y="1060" type="line"/>
      <point x="568" y="1388" type="line"/>
      <point x="410" y="1388" type="line"/>
      <point x="329" y="1060" type="line"/>
      <point x="145" y="1060" type="line"/>
      <point x="120" y="918" type="line"/>
      <point x="297" y="918" type="line"/>
      <point x="189" y="303" type="line" smooth="yes"/>
      <point x="184" y="273"/>
      <point x="181" y="245"/>
      <point x="181" y="220" type="curve" smooth="yes"/>
      <point x="181" y="51"/>
      <point x="301" y="-8"/>
    </contour>
    <contour>
      <point x="313" y="1060" type="move" name="caron.alt"/>
    </contour>
    <contour>
      <point x="550" y="1280" type="move" name="top"/>
    </contour>
    <contour>
      <point x="362" y="597" type="move" name="mid"/>
    </contour>
    <contour>
      <point x="337" y="32" type="move" name="bot"/>
    </contour>
  </outline>
</glyph>
<glyph name="v" format="1">
  <advance width="1104"/>
  <unicode hex="0076"/>
  <outline>
    <contour>
      <point x="382" y="0" type="line"/>
      <point x="572" y="0" type="line"/>
      <point x="1133" y="1060" type="line"/>
      <point x="949" y="1060" type="line"/>
      <point x="514" y="200" type="line"/>
      <point x="346" y="1060" type="line"/>
      <point x="157" y="1060" type="line"/>
    </contour>
  </outline>
</glyph>
<glyph name="x" format="1">
  <advance width="1056"/>
  <unicode hex="0078"/>
  <outline>
    <contour>
      <point x="-29" y="0" type="line"/>
      <point x="158" y="0" type="line"/>
      <point x="512" y="403" type="line"/>
      <point x="724" y="0" type="line"/>
      <point x="907" y="0" type="line"/>
      <point x="627" y="535" type="line"/>
      <point x="1088" y="1060" type="line"/>
      <point x="907" y="1060" type="line"/>
      <point x="559" y="666" type="line"/>
      <point x="352" y="1060" type="line"/>
      <point x="163" y="1060" type="line"/>
      <point x="442" y="533" type="line"/>
    </contour>
  </outline>
</glyph>
<glyph name="braceleft" format="1">
  <advance width="952"/>
  <unicode hex="007B"/>
  <outline>
    <contour>
      <point x="716" y="-207" type="curve"/>
      <point x="743" y="-56" type="line"/>
      <point x="541" y="-56"/>
      <point x="486" y="-27"/>
      <point x="486" y="76" type="curve" smooth="yes"/>
      <point x="486" y="117"/>
      <point x="494" y="169"/>
      <point x="506" y="235" type="curve" smooth="yes"/>
      <point x="517" y="297" type="line" smooth="yes"/>
      <point x="528" y="362"/>
      <point x="535" y="423"/>
      <point x="535" y="476" type="curve" smooth="yes"/>
      <point x="535" y="563"/>
      <point x="517" y="627"/>
      <point x="475" y="649" type="curve"/>
      <point x="555" y="686"/>
      <point x="611" y="830"/>
      <point x="641" y="1002" type="curve" smooth="yes"/>
      <point x="652" y="1064" type="line" smooth="yes"/>
      <point x="693" y="1297"/>
      <point x="709" y="1355"/>
      <point x="991" y="1355" type="curve"/>
      <point x="1018" y="1506" type="line"/>
      <point x="543" y="1506"/>
      <point x="509" y="1341"/>
      <point x="457" y="1046" type="curve"/>
      <point x="450" y="1005" type="line"/>
      <point x="404" y="747"/>
      <point x="351" y="724"/>
      <point x="247" y="724" type="curve" smooth="yes"/>
      <point x="224" y="724"/>
      <point x="200" y="725"/>
      <point x="172" y="725" type="curve"/>
      <point x="146" y="574" type="line"/>
      <point x="174" y="574"/>
      <point x="198" y="575"/>
      <point x="221" y="575" type="curve" smooth="yes"/>
      <point x="297" y="575"/>
      <point x="342" y="563"/>
      <point x="342" y="454" type="curve" smooth="yes"/>
      <point x="342" y="415"/>
      <point x="336" y="362"/>
      <point x="324" y="294" type="curve" smooth="yes"/>
      <point x="317" y="253" type="line" smooth="yes"/>
      <point x="303" y="171"/>
      <point x="290" y="99"/>
      <point x="290" y="38" type="curve" smooth="yes"/>
      <point x="290" y="-121"/>
      <point x="373" y="-207"/>
    </contour>
  </outline>
</glyph>
<glyph name="bar" format="1">
  <advance width="690"/>
  <unicode hex="007C"/>
  <outline>
    <contour>
      <point x="104" y="-167" type="line"/>
      <point x="282" y="-167" type="line"/>
      <point x="586" y="1555" type="line"/>
      <point x="408" y="1555" type="line"/>
    </contour>
  </outline>
</glyph>
<glyph name="braceright" format="1">
  <advance width="952"/>
  <unicode hex="007D"/>
  <outline>
    <contour>
      <point x="-23" y="-207" type="line"/>
      <point x="452" y="-207"/>
      <point x="486" y="-42"/>
      <point x="538" y="253" type="curve"/>
      <point x="545" y="294" type="line"/>
      <point x="591" y="552"/>
      <point x="644" y="575"/>
      <point x="748" y="575" type="curve" smooth="yes"/>
      <point x="771" y="575"/>
      <point x="795" y="574"/>
      <point x="823" y="574" type="curve"/>
      <point x="849" y="725" type="line"/>
      <point x="821" y="725"/>
      <point x="797" y="724"/>
      <point x="774" y="724" type="curve" smooth="yes"/>
      <point x="698" y="724"/>
      <point x="653" y="736"/>
      <point x="653" y="845" type="curve" smooth="yes"/>
      <point x="653" y="884"/>
      <point x="659" y="937"/>
      <point x="671" y="1005" type="curve" smooth="yes"/>
      <point x="678" y="1046" type="line" smooth="yes"/>
      <point x="692" y="1128"/>
      <point x="705" y="1200"/>
      <point x="705" y="1261" type="curve" smooth="yes"/>
      <point x="705" y="1420"/>
      <point x="622" y="1506"/>
      <point x="279" y="1506" type="curve"/>
      <point x="252" y="1355" type="line"/>
      <point x="454" y="1355"/>
      <point x="509" y="1326"/>
      <point x="509" y="1223" type="curve" smooth="yes"/>
      <point x="509" y="1182"/>
      <point x="501" y="1130"/>
      <point x="489" y="1064" type="curve" smooth="yes"/>
      <point x="478" y="1002" type="line" smooth="yes"/>
      <point x="467" y="937"/>
      <point x="460" y="876"/>
      <point x="460" y="823" type="curve" smooth="yes"/>
      <point x="460" y="736"/>
      <point x="478" y="672"/>
      <point x="520" y="649" type="curve"/>
      <point x="440" y="613"/>
      <point x="384" y="469"/>
      <point x="354" y="297" type="curve" smooth="yes"/>
      <point x="343" y="235" type="line" smooth="yes"/>
      <point x="302" y="2"/>
      <point x="286" y="-56"/>
      <point x="4" y="-56" type="curve"/>
    </contour>
  </outline>
</glyph>
<glyph name="yen" format="1">
  <advance width="1318"/>
  <unicode hex="00A5"/>
  <outline>
    <contour>
      <point x="1034" y="560" type="line"/>
      <point x="1060" y="708" type="line"/>
      <point x="257" y="708" type="line"/>
      <point x="231" y="560" type="line"/>
    </contour>
    <contour>
      <point x="980" y="252" type="line"/>
      <point x="1006" y="400" type="line"/>
      <point x="203" y="400" type="line"/>
      <point x="177" y="252" type="line"/>
    </contour>
    <component base="Y"/>
  </outline>
</glyph>
<glyph name="brokenbar" format="1">
  <advance width="674"/>
  <unicode hex="00A6"/>
  <outline>
    <contour>
      <point x="102" y="-167" type="line"/>
      <point x="280" y="-167" type="line"/>
      <point x="400" y="513" type="line"/>
      <point x="222" y="513" type="line"/>
    </contour>
    <contour>
      <point x="281" y="848" type="line"/>
      <point x="459" y="848" type="line"/>
      <point x="584" y="1555" type="line"/>
      <point x="406" y="1555" type="line"/>
    </contour>
  </outline>
</glyph>
<glyph name="section" format="1">
  <advance width="1002"/>
  <unicode hex="00A7"/>
  <outline>
    <contour>
      <point x="804" y="487" type="curve"/>
      <point x="868" y="558"/>
      <point x="902" y="654"/>
      <point x="902" y="771" type="curve" smooth="yes"/>
      <point x="902" y="867"/>
      <point x="858" y="919"/>
      <point x="726" y="973" type="curve" smooth="yes"/>
      <point x="486" y="1071" type="line" smooth="yes"/>
      <point x="431" y="1094"/>
      <point x="410" y="1113"/>
      <point x="410" y="1153" type="curve" smooth="yes"/>
      <point x="410" y="1162"/>
      <point x="411" y="1172"/>
      <point x="413" y="1184" type="curve" smooth="yes"/>
      <point x="431" y="1283"/>
      <point x="469" y="1324"/>
      <point x="648" y="1324" type="curve" smooth="yes"/>
      <point x="739" y="1324"/>
      <point x="866" y="1291"/>
      <point x="925" y="1266" type="curve"/>
      <point x="995" y="1410" type="line"/>
      <point x="920" y="1441"/>
      <point x="790" y="1468"/>
      <point x="637" y="1468" type="curve" smooth="yes"/>
      <point x="367" y="1468"/>
      <point x="263" y="1358"/>
      <point x="231" y="1178" type="curve" smooth="yes"/>
      <point x="227" y="1156"/>
      <point x="225" y="1135"/>
      <point x="225" y="1116" type="curve" smooth="yes"/>
      <point x="225" y="1067"/>
      <point x="239" y="1029"/>
      <point x="271" y="997" type="curve"/>
      <point x="209" y="946"/>
      <point x="179" y="880"/>
      <point x="163" y="792" type="curve" smooth="yes"/>
      <point x="159" y="770"/>
      <point x="157" y="749"/>
      <point x="157" y="730" type="curve" smooth="yes"/>
      <point x="157" y="636"/>
      <point x="207" y="583"/>
      <point x="332" y="536" type="curve" smooth="yes"/>
      <point x="575" y="443" type="line" smooth="yes"/>
      <point x="645" y="416"/>
      <point x="665" y="386"/>
      <point x="665" y="340" type="curve" smooth="yes"/>
      <point x="665" y="323"/>
      <point x="662" y="303"/>
      <point x="658" y="281" type="curve" smooth="yes"/>
      <point x="642" y="192"/>
      <point x="582" y="122"/>
      <point x="410" y="122" type="curve" smooth="yes"/>
      <point x="262" y="122"/>
      <point x="144" y="176"/>
      <point x="99" y="202" type="curve"/>
      <point x="28" y="64" type="line"/>
      <point x="73" y="37"/>
      <point x="207" y="-22"/>
      <point x="411" y="-22" type="curve" smooth="yes"/>
      <point x="670" y="-22"/>
      <point x="793" y="116"/>
      <point x="822" y="283" type="curve" smooth="yes"/>
      <point x="829" y="321"/>
      <point x="833" y="354"/>
      <point x="833" y="383" type="curve" smooth="yes"/>
      <point x="833" y="425"/>
      <point x="825" y="459"/>
    </contour>
    <contour>
      <point x="689" y="571" type="curve"/>
      <point x="418" y="683" type="line" smooth="yes"/>
      <point x="364" y="705"/>
      <point x="343" y="730"/>
      <point x="343" y="771" type="curve" smooth="yes"/>
      <point x="343" y="820"/>
      <point x="383" y="924"/>
      <point x="400" y="924" type="curve"/>
      <point x="643" y="831" type="line" smooth="yes"/>
      <point x="713" y="804"/>
      <point x="733" y="774"/>
      <point x="733" y="729" type="curve" smooth="yes"/>
      <point x="733" y="669"/>
      <point x="718" y="615"/>
    </contour>
  </outline>
</glyph>
<glyph name="registered" format="1">
  <advance width="1784"/>
  <unicode hex="00AE"/>
  <outline>
    <contour>
      <point x="1100" y="666" type="line"/>
      <point x="1211" y="695"/>
      <point x="1300" y="796"/>
      <point x="1300" y="966" type="curve" smooth="yes"/>
      <point x="1300" y="1098"/>
      <point x="1213" y="1153"/>
      <point x="1075" y="1153" type="curve" smooth="yes"/>
      <point x="672" y="1153" type="line"/>
      <point x="525" y="319" type="line"/>
      <point x="656" y="319" type="line"/>
      <point x="715" y="652" type="line"/>
      <point x="974" y="652" type="line"/>
      <point x="1095" y="319" type="line"/>
      <point x="1223" y="319" type="line"/>
    </contour>
    <contour>
      <point x="731" y="742" type="line"/>
      <point x="787" y="1062" type="line"/>
      <point x="1063" y="1062" type="line" smooth="yes"/>
      <point x="1149" y="1062"/>
      <point x="1167" y="1008"/>
      <point x="1167" y="956" type="curve" smooth="yes"/>
      <point x="1167" y="936"/>
      <point x="1165" y="917"/>
      <point x="1162" y="901" type="curve" smooth="yes"/>
      <point x="1158" y="877" type="line"/>
      <point x="1145" y="814"/>
      <point x="1112" y="742"/>
      <point x="998" y="742" type="curve" smooth="yes"/>
    </contour>
    <contour>
      <point x="781" y="82" type="curve" smooth="yes"/>
      <point x="460" y="82"/>
      <point x="254" y="296"/>
      <point x="254" y="597" type="curve" smooth="yes"/>
      <point x="254" y="637"/>
      <point x="257" y="679"/>
      <point x="265" y="722" type="curve" smooth="yes"/>
      <point x="329" y="1086"/>
      <point x="643" y="1361"/>
      <point x="1007" y="1361" type="curve" smooth="yes"/>
      <point x="1330" y="1361"/>
      <point x="1533" y="1148"/>
      <point x="1533" y="848" type="curve" smooth="yes"/>
      <point x="1533" y="808"/>
      <point x="1530" y="765"/>
      <point x="1522" y="722" type="curve" smooth="yes"/>
      <point x="1458" y="357"/>
      <point x="1147" y="82"/>
    </contour>
    <contour>
      <point x="762" y="-14" type="curve" smooth="yes"/>
      <point x="1178" y="-14"/>
      <point x="1554" y="303"/>
      <point x="1628" y="722" type="curve" smooth="yes"/>
      <point x="1636" y="769"/>
      <point x="1640" y="815"/>
      <point x="1640" y="859" type="curve" smooth="yes"/>
      <point x="1640" y="1206"/>
      <point x="1391" y="1456"/>
      <point x="1022" y="1456" type="curve" smooth="yes"/>
      <point x="609" y="1456"/>
      <point x="230" y="1139"/>
      <point x="156" y="722" type="curve" smooth="yes"/>
      <point x="148" y="675"/>
      <point x="144" y="629"/>
      <point x="144" y="585" type="curve" smooth="yes"/>
      <point x="144" y="236"/>
      <point x="395" y="-14"/>
    </contour>
  </outline>
</glyph>
<glyph name="degree" format="1">
  <advance width="1036"/>
  <unicode hex="00B0"/>
  <outline>
    <contour>
      <point x="751" y="1168" type="curve" smooth="yes"/>
      <point x="751" y="1009"/>
      <point x="617" y="885"/>
      <point x="477" y="885" type="curve" smooth="yes"/>
      <point x="361" y="885"/>
      <point x="287" y="968"/>
      <point x="287" y="1078" type="curve" smooth="yes"/>
      <point x="287" y="1237"/>
      <point x="421" y="1361"/>
      <point x="561" y="1361" type="curve" smooth="yes"/>
      <point x="677" y="1361"/>
      <point x="751" y="1278"/>
    </contour>
    <contour>
      <point x="461" y="798" type="curve" smooth="yes"/>
      <point x="639" y="798"/>
      <point x="810" y="943"/>
      <point x="842" y="1122" type="curve" smooth="yes"/>
      <point x="845" y="1141"/>
      <point x="847" y="1159"/>
      <point x="847" y="1177" type="curve" smooth="yes"/>
      <point x="847" y="1329"/>
      <point x="734" y="1446"/>
      <point x="575" y="1446" type="curve" smooth="yes"/>
      <point x="397" y="1446"/>
      <point x="225" y="1300"/>
      <point x="194" y="1122" type="curve" smooth="yes"/>
      <point x="191" y="1103"/>
      <point x="189" y="1083"/>
      <point x="189" y="1065" type="curve" smooth="yes"/>
      <point x="189" y="913"/>
      <point x="302" y="798"/>
    </contour>
  </outline>
</glyph>
<glyph name="threesuperior" format="1">
  <advance width="1050"/>
  <unicode hex="00B3"/>
  <outline>
    <contour>
      <point x="710" y="969" type="curve" smooth="yes"/>
      <point x="710" y="842"/>
      <point x="621" y="774"/>
      <point x="500" y="774" type="curve" smooth="yes"/>
      <point x="393" y="774"/>
      <point x="313" y="791"/>
      <point x="313" y="909" type="curve" smooth="yes"/>
      <point x="313" y="927"/>
      <point x="315" y="948"/>
      <point x="319" y="971" type="curve"/>
      <point x="188" y="971" type="line"/>
      <point x="184" y="942"/>
      <point x="181" y="915"/>
      <point x="181" y="891" type="curve" smooth="yes"/>
      <point x="181" y="714"/>
      <point x="297" y="666"/>
      <point x="476" y="666" type="curve" smooth="yes"/>
      <point x="659" y="666"/>
      <point x="802" y="748"/>
      <point x="833" y="925" type="curve" smooth="yes"/>
      <point x="837" y="946"/>
      <point x="838" y="964"/>
      <point x="838" y="982" type="curve" smooth="yes"/>
      <point x="838" y="1072"/>
      <point x="791" y="1122"/>
      <point x="694" y="1144" type="curve"/>
      <point x="817" y="1173"/>
      <point x="872" y="1249"/>
      <point x="889" y="1345" type="curve" smooth="yes"/>
      <point x="892" y="1360"/>
      <point x="893" y="1374"/>
      <point x="893" y="1388" type="curve" smooth="yes"/>
      <point x="893" y="1518"/>
      <point x="777" y="1584"/>
      <point x="639" y="1584" type="curve"/>
      <point x="461" y="1584"/>
      <point x="298" y="1532"/>
      <point x="255" y="1289" type="curve"/>
      <point x="384" y="1289" type="line"/>
      <point x="409" y="1440"/>
      <point x="484" y="1475"/>
      <point x="617" y="1475" type="curve" smooth="yes"/>
      <point x="725" y="1475"/>
      <point x="764" y="1425"/>
      <point x="764" y="1368" type="curve" smooth="yes"/>
      <point x="764" y="1360"/>
      <point x="763" y="1351"/>
      <point x="762" y="1343" type="curve" smooth="yes"/>
      <point x="747" y="1258"/>
      <point x="730" y="1194"/>
      <point x="490" y="1194" type="curve" smooth="yes"/>
      <point x="484" y="1194" type="line"/>
      <point x="466" y="1089" type="line"/>
      <point x="473" y="1089" type="line" smooth="yes"/>
      <point x="654" y="1089"/>
      <point x="710" y="1055"/>
    </contour>
  </outline>
</glyph>
<glyph name="paragraph" format="1">
  <advance width="1250"/>
  <unicode hex="00B6"/>
  <outline>
    <contour>
      <point x="390" y="-210" type="line"/>
      <point x="540" y="-210" type="line"/>
      <point x="813" y="1338" type="line"/>
      <point x="952" y="1338" type="line"/>
      <point x="679" y="-210" type="line"/>
      <point x="815" y="-210" type="line"/>
      <point x="1107" y="1446" type="line"/>
      <point x="718" y="1446" type="line" smooth="yes"/>
      <point x="524" y="1446"/>
      <point x="301" y="1372"/>
      <point x="263" y="1156" type="curve" smooth="yes"/>
      <point x="260" y="1142"/>
      <point x="259" y="1128"/>
      <point x="259" y="1115" type="curve" smooth="yes"/>
      <point x="259" y="961"/>
      <point x="423" y="874"/>
      <point x="580" y="870" type="curve"/>
    </contour>
  </outline>
</glyph>
<glyph name="periodcentered" format="1">
  <advance width="734"/>
  <unicode hex="00B7"/>
  <outline>
    <contour>
      <point x="411" y="622" type="line"/>
      <point x="616" y="622" type="line"/>
      <point x="652" y="828" type="line"/>
      <point x="447" y="828" type="line"/>
    </contour>
    <contour>
      <point x="103" y="714" type="move" name="_mid"/>
    </contour>
  </outline>
</glyph>
<glyph name="cedilla" format="1">
  <advance width="512"/>
  <unicode hex="00B8"/>
  <outline>
    <contour>
      <point x="324" y="-274" type="curve" smooth="yes"/>
      <point x="324" y="-340"/>
      <point x="267" y="-389"/>
      <point x="165" y="-389" type="curve" smooth="yes"/>
      <point x="144" y="-389"/>
      <point x="121" y="-387"/>
      <point x="95" y="-382" type="curve"/>
      <point x="79" y="-478" type="line"/>
      <point x="112" y="-484"/>
      <point x="142" y="-486"/>
      <point x="170" y="-486" type="curve" smooth="yes"/>
      <point x="335" y="-486"/>
      <point x="433" y="-397"/>
      <point x="449" y="-303" type="curve" smooth="yes"/>
      <point x="451" y="-293"/>
      <point x="452" y="-284"/>
      <point x="452" y="-274" type="curve" smooth="yes"/>
      <point x="452" y="-194"/>
      <point x="392" y="-117"/>
      <point x="265" y="-94" type="curve"/>
      <point x="276" y="0" type="line"/>
      <point x="214" y="0" type="line"/>
      <point x="186" y="-158" type="line"/>
      <point x="276" y="-161"/>
      <point x="324" y="-218"/>
    </contour>
    <contour>
      <point x="248" y="0" type="move" name="_bot"/>
    </contour>
  </outline>
</glyph>
<glyph name="onequarter" format="1">
  <advance width="2047"/>
  <unicode hex="00BC"/>
  <outline>
    <contour>
      <point x="1522" y="0" type="line"/>
      <point x="1635" y="0" type="line"/>
      <point x="1672" y="207" type="line"/>
      <point x="1816" y="207" type="line"/>
      <point x="1832" y="298" type="line"/>
      <point x="1688" y="298" type="line"/>
      <point x="1729" y="533" type="line"/>
      <point x="1616" y="533" type="line"/>
      <point x="1575" y="298" type="line"/>
      <point x="1293" y="298" type="line"/>
      <point x="1746" y="892" type="line"/>
      <point x="1605" y="892" type="line"/>
      <point x="1141" y="299" type="line"/>
      <point x="1125" y="207" type="line"/>
      <point x="1559" y="207" type="line"/>
    </contour>
    <contour>
      <point x="147" y="654" type="line"/>
      <point x="783" y="654" type="line"/>
      <point x="800" y="755" type="line"/>
      <point x="569" y="755" type="line"/>
      <point x="702" y="1505" type="line"/>
      <point x="595" y="1505" type="line"/>
      <point x="297" y="1472" type="line"/>
      <point x="291" y="1368" type="line"/>
      <point x="551" y="1394" type="line"/>
      <point x="438" y="755" type="line"/>
      <point x="164" y="755" type="line"/>
    </contour>
    <contour>
      <point x="554" y="0" type="line"/>
      <point x="686" y="0" type="line"/>
      <point x="1619" y="1446" type="line"/>
      <point x="1493" y="1446" type="line"/>
    </contour>
  </outline>
</glyph>
<glyph name="onehalf" format="1">
  <advance width="2047"/>
  <unicode hex="00BD"/>
  <outline>
    <contour>
      <point x="1239" y="2" type="line"/>
      <point x="1751" y="2" type="line"/>
      <point x="1768" y="101" type="line"/>
      <point x="1397" y="101" type="line"/>
      <point x="1652" y="339" type="line" smooth="yes"/>
      <point x="1750" y="431"/>
      <point x="1834" y="495"/>
      <point x="1857" y="625" type="curve" smooth="yes"/>
      <point x="1860" y="642"/>
      <point x="1861" y="659"/>
      <point x="1861" y="675" type="curve" smooth="yes"/>
      <point x="1861" y="784"/>
      <point x="1792" y="867"/>
      <point x="1634" y="867" type="curve" smooth="yes"/>
      <point x="1465" y="867"/>
      <point x="1338" y="789"/>
      <point x="1306" y="605" type="curve"/>
      <point x="1423" y="605" type="line"/>
      <point x="1447" y="741"/>
      <point x="1496" y="765"/>
      <point x="1618" y="765" type="curve" smooth="yes"/>
      <point x="1705" y="765"/>
      <point x="1743" y="733"/>
      <point x="1743" y="666" type="curve" smooth="yes"/>
      <point x="1743" y="653"/>
      <point x="1742" y="639"/>
      <point x="1739" y="624" type="curve" smooth="yes"/>
      <point x="1725" y="542"/>
      <point x="1683" y="503"/>
      <point x="1583" y="413" type="curve"/>
      <point x="1244" y="94" type="line"/>
    </contour>
    <contour>
      <point x="147" y="654" type="line"/>
      <point x="783" y="654" type="line"/>
      <point x="800" y="755" type="line"/>
      <point x="569" y="755" type="line"/>
      <point x="702" y="1505" type="line"/>
      <point x="595" y="1505" type="line"/>
      <point x="297" y="1472" type="line"/>
      <point x="291" y="1368" type="line"/>
      <point x="551" y="1394" type="line"/>
      <point x="438" y="755" type="line"/>
      <point x="164" y="755" type="line"/>
    </contour>
    <contour>
      <point x="554" y="0" type="line"/>
      <point x="686" y="0" type="line"/>
      <point x="1619" y="1446" type="line"/>
      <point x="1493" y="1446" type="line"/>
    </contour>
  </outline>
</glyph>
<glyph name="Oslash" format="1">
  <advance width="1546"/>
  <unicode hex="00D8"/>
  <outline>
    <contour>
      <point x="314" y="-195" type="line"/>
      <point x="1316" y="1638" type="line"/>
      <point x="1219" y="1676" type="line"/>
      <point x="218" y="-157" type="line"/>
    </contour>
    <component base="O"/>
    <contour>
      <point x="915" y="1446" type="move" name="top"/>
    </contour>
  </outline>
</glyph>
<glyph name="divide" format="1">
  <advance width="1025"/>
  <unicode hex="00F7"/>
  <outline>
    <contour>
      <point x="333" y="90" type="line"/>
      <point x="538" y="90" type="line"/>
      <point x="575" y="299" type="line"/>
      <point x="370" y="299" type="line"/>
    </contour>
    <contour>
      <point x="87" y="472" type="line"/>
      <point x="912" y="472" type="line"/>
      <point x="937" y="609" type="line"/>
      <point x="112" y="609" type="line"/>
    </contour>
    <contour>
      <point x="456" y="787" type="line"/>
      <point x="661" y="787" type="line"/>
      <point x="698" y="996" type="line"/>
      <point x="493" y="996" type="line"/>
    </contour>
  </outline>
</glyph>
<glyph name="hbar" format="1">
  <advance width="1224"/>
  <unicode hex="0127"/>
  <outline>
    <contour>
      <point x="117" y="1249" type="line"/>
      <point x="932" y="1249" type="line"/>
      <point x="953" y="1373" type="line"/>
      <point x="138" y="1373" type="line"/>
    </contour>
    <component base="h"/>
  </outline>
</glyph>
<glyph name="eng" format="1">
  <advance width="1226"/>
  <unicode hex="014B"/>
  <outline>
    <contour>
      <point x="518" y="-316" type="line"/>
      <point x="864" y="-316"/>
      <point x="954" y="-162"/>
      <point x="1021" y="219" type="curve" smooth="yes"/>
      <point x="1118" y="770" type="line" smooth="yes"/>
      <point x="1122" y="793"/>
      <point x="1124" y="815"/>
      <point x="1124" y="836" type="curve" smooth="yes"/>
      <point x="1124" y="973"/>
      <point x="1037" y="1080"/>
      <point x="811" y="1080" type="curve" smooth="yes"/>
      <point x="657" y="1080"/>
      <point x="550" y="1029"/>
      <point x="475" y="957" type="curve"/>
      <point x="494" y="1060" type="line"/>
      <point x="306" y="1060" type="line"/>
      <point x="119" y="0" type="line"/>
      <point x="307" y="0" type="line"/>
      <point x="440" y="755" type="line" smooth="yes"/>
      <point x="458" y="857"/>
      <point x="554" y="936"/>
      <point x="738" y="936" type="curve" smooth="yes"/>
      <point x="856" y="936"/>
      <point x="935" y="895"/>
      <point x="935" y="810" type="curve" smooth="yes"/>
      <point x="935" y="801"/>
      <point x="934" y="791"/>
      <point x="932" y="781" type="curve" smooth="yes"/>
      <point x="832" y="212" type="line" smooth="yes"/>
      <point x="777" y="-100"/>
      <point x="763" y="-175"/>
      <point x="515" y="-175" type="curve"/>
    </contour>
  </outline>
</glyph>
<glyph name="oe" format="1">
  <advance width="1734"/>
  <unicode hex="0153"/>
  <outline>
    <contour>
      <point x="472" y="-20" type="curve"/>
      <point x="633" y="-20"/>
      <point x="735" y="34"/>
      <point x="811" y="122" type="curve"/>
      <point x="860" y="35"/>
      <point x="957" y="-20"/>
      <point x="1101" y="-20" type="curve" smooth="yes"/>
      <point x="1391" y="-20"/>
      <point x="1501" y="73"/>
      <point x="1568" y="331" type="curve"/>
      <point x="1398" y="331" type="line"/>
      <point x="1353" y="148"/>
      <point x="1292" y="121"/>
      <point x="1126" y="121" type="curve" smooth="yes"/>
      <point x="1000" y="121"/>
      <point x="938" y="169"/>
      <point x="938" y="271" type="curve" smooth="yes"/>
      <point x="938" y="288"/>
      <point x="939" y="307"/>
      <point x="943" y="328" type="curve" smooth="yes"/>
      <point x="975" y="506" type="line"/>
      <point x="1600" y="506" type="line"/>
      <point x="1644" y="758" type="line" smooth="yes"/>
      <point x="1648" y="783"/>
      <point x="1651" y="806"/>
      <point x="1651" y="828" type="curve" smooth="yes"/>
      <point x="1651" y="986"/>
      <point x="1537" y="1080"/>
      <point x="1295" y="1080" type="curve" smooth="yes"/>
      <point x="1150" y="1080"/>
      <point x="1039" y="1043"/>
      <point x="957" y="950" type="curve"/>
      <point x="903" y="1043"/>
      <point x="804" y="1080"/>
      <point x="666" y="1080" type="curve" smooth="yes"/>
      <point x="403" y="1080"/>
      <point x="224" y="947"/>
      <point x="188" y="747" type="curve" smooth="yes"/>
      <point x="112" y="317" type="line" smooth="yes"/>
      <point x="107" y="289"/>
      <point x="105" y="263"/>
      <point x="105" y="238" type="curve" smooth="yes"/>
      <point x="105" y="84"/>
      <point x="200" y="-20"/>
    </contour>
    <contour>
      <point x="497" y="121" type="curve" smooth="yes"/>
      <point x="368" y="121"/>
      <point x="294" y="159"/>
      <point x="294" y="258" type="curve" smooth="yes"/>
      <point x="294" y="271"/>
      <point x="295" y="285"/>
      <point x="298" y="301" type="curve" smooth="yes"/>
      <point x="379" y="763" type="line" smooth="yes"/>
      <point x="402" y="894"/>
      <point x="502" y="938"/>
      <point x="641" y="938" type="curve" smooth="yes"/>
      <point x="768" y="938"/>
      <point x="836" y="900"/>
      <point x="836" y="806" type="curve" smooth="yes"/>
      <point x="836" y="793"/>
      <point x="835" y="778"/>
      <point x="832" y="763" type="curve" smooth="yes"/>
      <point x="751" y="301" type="line" smooth="yes"/>
      <point x="728" y="171"/>
      <point x="636" y="121"/>
    </contour>
    <contour>
      <point x="997" y="633" type="line"/>
      <point x="1020" y="760" type="line" smooth="yes"/>
      <point x="1043" y="891"/>
      <point x="1120" y="938"/>
      <point x="1270" y="938" type="curve" smooth="yes"/>
      <point x="1398" y="938"/>
      <point x="1470" y="913"/>
      <point x="1470" y="819" type="curve" smooth="yes"/>
      <point x="1470" y="807"/>
      <point x="1469" y="793"/>
      <point x="1466" y="778" type="curve" smooth="yes"/>
      <point x="1440" y="633" type="line"/>
    </contour>
    <contour>
      <point x="774" y="0" type="move" name="top"/>
    </contour>
  </outline>
</glyph>
<glyph name="circumflex" format="1">
  <advance width="512"/>
  <unicode hex="02C6"/>
  <outline>
    <contour>
      <point x="-53" y="1287" type="line"/>
      <point x="127" y="1287" type="line"/>
      <point x="264" y="1431" type="line"/>
      <point x="343" y="1287" type="line"/>
      <point x="519" y="1287" type="line"/>
      <point x="359" y="1553" type="line"/>
      <point x="209" y="1553" type="line"/>
    </contour>
    <contour>
      <point x="193" y="1060" type="move" name="_top"/>
    </contour>
  </outline>
</glyph>
<glyph name="firsttonechinese" format="1">
  <advance width="513"/>
  <unicode hex="02C9"/>
  <outline>
    <contour>
      <point x="-21" y="1321" type="line"/>
      <point x="508" y="1321" type="line"/>
      <point x="534" y="1468" type="line"/>
      <point x="5" y="1468" type="line"/>
    </contour>
    <contour>
      <point x="257" y="1394" type="move" name="_mid"/>
    </contour>
    <contour>
      <point x="198" y="1060" type="move" name="_top"/>
    </contour>
  </outline>
</glyph>
<glyph name="breve" format="1">
  <advance width="512"/>
  <unicode hex="02D8"/>
  <outline>
    <contour>
      <point x="237" y="1294" type="curve" smooth="yes"/>
      <point x="376" y="1294"/>
      <point x="480" y="1391"/>
      <point x="501" y="1506" type="curve"/>
      <point x="375" y="1506" type="line"/>
      <point x="364" y="1446"/>
      <point x="309" y="1416"/>
      <point x="259" y="1416" type="curve" smooth="yes"/>
      <point x="214" y="1416"/>
      <point x="173" y="1440"/>
      <point x="173" y="1488" type="curve" smooth="yes"/>
      <point x="173" y="1494"/>
      <point x="174" y="1500"/>
      <point x="175" y="1506" type="curve"/>
      <point x="49" y="1506" type="line"/>
      <point x="47" y="1493"/>
      <point x="45" y="1479"/>
      <point x="45" y="1466" type="curve" smooth="yes"/>
      <point x="45" y="1369"/>
      <point x="114" y="1294"/>
    </contour>
    <contour>
      <point x="207" y="1060" type="move" name="_top"/>
    </contour>
  </outline>
</glyph>
<glyph name="tilde" format="1">
  <advance width="512"/>
  <unicode hex="02DC"/>
  <outline>
    <contour>
      <point x="124" y="1203" type="curve" smooth="yes"/>
      <point x="261" y="1203"/>
      <point x="311" y="1310"/>
      <point x="382" y="1310" type="curve" smooth="yes"/>
      <point x="416" y="1310"/>
      <point x="439" y="1288"/>
      <point x="439" y="1245" type="curve" smooth="yes"/>
      <point x="439" y="1236"/>
      <point x="438" y="1227"/>
      <point x="436" y="1217" type="curve"/>
      <point x="533" y="1217" type="line"/>
      <point x="538" y="1246"/>
      <point x="541" y="1272"/>
      <point x="541" y="1295" type="curve" smooth="yes"/>
      <point x="541" y="1403"/>
      <point x="486" y="1446"/>
      <point x="387" y="1446" type="curve" smooth="yes"/>
      <point x="250" y="1446"/>
      <point x="200" y="1339"/>
      <point x="129" y="1339" type="curve" smooth="yes"/>
      <point x="95" y="1339"/>
      <point x="72" y="1361"/>
      <point x="72" y="1404" type="curve" smooth="yes"/>
      <point x="72" y="1413"/>
      <point x="73" y="1422"/>
      <point x="75" y="1432" type="curve"/>
      <point x="-22" y="1432" type="line"/>
      <point x="-27" y="1403"/>
      <point x="-30" y="1377"/>
      <point x="-30" y="1354" type="curve" smooth="yes"/>
      <point x="-30" y="1246"/>
      <point x="25" y="1203"/>
    </contour>
    <contour>
      <point x="209" y="1060" type="move" name="_top"/>
    </contour>
  </outline>
</glyph>
<glyph name="hungarumlaut" format="1">
  <advance width="1024"/>
  <unicode hex="02DD"/>
  <outline>
    <contour>
      <point x="130" y="1293" type="line"/>
      <point x="258" y="1293" type="line"/>
      <point x="561" y="1674" type="line"/>
      <point x="336" y="1674" type="line"/>
    </contour>
    <contour>
      <point x="540" y="1293" type="line"/>
      <point x="668" y="1293" type="line"/>
      <point x="971" y="1674" type="line"/>
      <point x="746" y="1674" type="line"/>
    </contour>
    <contour>
      <point x="347" y="1060" type="move" name="_top"/>
    </contour>
  </outline>
</glyph>
<glyph name="uni030F" format="1">
  <advance width="1024"/>
  <unicode hex="030F"/>
  <outline>
    <contour>
      <point x="714" y="1293" type="line"/>
      <point x="842" y="1293" type="line"/>
      <point x="772" y="1674" type="line"/>
      <point x="547" y="1674" type="line"/>
    </contour>
    <contour>
      <point x="304" y="1293" type="line"/>
      <point x="432" y="1293" type="line"/>
      <point x="362" y="1674" type="line"/>
      <point x="137" y="1674" type="line"/>
    </contour>
    <contour>
      <point x="543" y="1060" type="move" name="_top"/>
    </contour>
  </outline>
</glyph>
<glyph name="uni0311" format="1">
  <advance width="512"/>
  <unicode hex="0311"/>
  <outline>
    <contour>
      <point x="11" y="1256" type="curve"/>
      <point x="137" y="1256" type="line"/>
      <point x="148" y="1316"/>
      <point x="203" y="1346"/>
      <point x="253" y="1346" type="curve" smooth="yes"/>
      <point x="298" y="1346"/>
      <point x="339" y="1322"/>
      <point x="339" y="1274" type="curve" smooth="yes"/>
      <point x="339" y="1268"/>
      <point x="338" y="1262"/>
      <point x="337" y="1256" type="curve"/>
      <point x="463" y="1256" type="line"/>
      <point x="465" y="1269"/>
      <point x="467" y="1283"/>
      <point x="467" y="1296" type="curve" smooth="yes"/>
      <point x="467" y="1393"/>
      <point x="398" y="1468"/>
      <point x="275" y="1468" type="curve" smooth="yes"/>
      <point x="136" y="1468"/>
      <point x="32" y="1371"/>
    </contour>
    <contour>
      <point x="214" y="1060" type="move" name="_top"/>
    </contour>
  </outline>
</glyph>
<glyph name="uni0312" format="1">
  <advance width="600"/>
  <unicode hex="0312"/>
  <outline>
    <component base="comma" xOffset="617" yOffset="1579" xScale="-1" yScale="-1"/>
    <contour>
      <point x="198" y="1060" type="move" name="_top"/>
    </contour>
  </outline>
</glyph>
<glyph name="mu" format="1">
  <advance width="1224"/>
  <unicode hex="03BC"/>
  <outline>
    <contour>
      <point x="975" y="1060" type="line"/>
      <point x="843" y="309" type="line" smooth="yes"/>
      <point x="827" y="220"/>
      <point x="722" y="122"/>
      <point x="538" y="122" type="curve" smooth="yes"/>
      <point x="420" y="122"/>
      <point x="350" y="172"/>
      <point x="350" y="258" type="curve" smooth="yes"/>
      <point x="350" y="268"/>
      <point x="351" y="278"/>
      <point x="353" y="289" type="curve" smooth="yes"/>
      <point x="489" y="1060" type="line"/>
      <point x="301" y="1060" type="line"/>
      <point x="47" y="-383" type="line"/>
      <point x="235" y="-383" type="line"/>
      <point x="304" y="7" type="line"/>
      <point x="348" y="-12"/>
      <point x="405" y="-22"/>
      <point x="475" y="-22" type="curve" smooth="yes"/>
      <point x="629" y="-22"/>
      <point x="741" y="38"/>
      <point x="812" y="133" type="curve"/>
      <point x="808" y="0" type="line"/>
      <point x="976" y="0" type="line"/>
      <point x="1163" y="1060" type="line"/>
    </contour>
    <contour>
      <point x="749" y="1060" type="move" name="top"/>
    </contour>
    <contour>
      <point x="897" y="0" type="move" name="ogonek"/>
    </contour>
  </outline>
</glyph>
<glyph name="pi" format="1">
  <advance width="1180"/>
  <unicode hex="03C0"/>
  <outline>
    <contour>
      <point x="94" y="875" type="line"/>
      <point x="94" y="875"/>
      <point x="211" y="935"/>
      <point x="324" y="935" type="curve"/>
      <point x="159" y="0" type="line"/>
      <point x="347" y="0" type="line"/>
      <point x="512" y="935" type="line"/>
      <point x="818" y="935" type="line"/>
      <point x="701" y="267" type="line" smooth="yes"/>
      <point x="694" y="228"/>
      <point x="691" y="194"/>
      <point x="691" y="164" type="curve" smooth="yes"/>
      <point x="691" y="15"/>
      <point x="778" y="-21"/>
      <point x="949" y="-22" type="curve"/>
      <point x="1022" y="124" type="line"/>
      <point x="925" y="146"/>
      <point x="889" y="160"/>
      <point x="889" y="234" type="curve" smooth="yes"/>
      <point x="889" y="259"/>
      <point x="893" y="291"/>
      <point x="900" y="333" type="curve" smooth="yes"/>
      <point x="1006" y="935" type="line"/>
      <point x="1188" y="935" type="line"/>
      <point x="1210" y="1060" type="line"/>
      <point x="313" y="1060" type="line" smooth="yes"/>
      <point x="192" y="1060"/>
      <point x="116" y="1000"/>
      <point x="116" y="1000" type="curve"/>
    </contour>
  </outline>
</glyph>
<glyph name="perthousand" format="1">
  <advance width="2886"/>
  <unicode hex="2030"/>
  <outline>
    <contour>
      <point x="516" y="774" type="curve" smooth="yes"/>
      <point x="420" y="774"/>
      <point x="392" y="825"/>
      <point x="392" y="903" type="curve" smooth="yes"/>
      <point x="392" y="937"/>
      <point x="397" y="977"/>
      <point x="405" y="1020" type="curve" smooth="yes"/>
      <point x="421" y="1115" type="line"/>
      <point x="445" y="1251"/>
      <point x="474" y="1345"/>
      <point x="617" y="1345" type="curve" smooth="yes"/>
      <point x="717" y="1345"/>
      <point x="746" y="1299"/>
      <point x="746" y="1225" type="curve" smooth="yes"/>
      <point x="746" y="1193"/>
      <point x="740" y="1155"/>
      <point x="733" y="1113" type="curve" smooth="yes"/>
      <point x="717" y="1020" type="line" smooth="yes"/>
      <point x="692" y="879"/>
      <point x="654" y="774"/>
    </contour>
    <contour>
      <point x="496" y="658" type="curve" smooth="yes"/>
      <point x="726" y="658"/>
      <point x="824" y="808"/>
      <point x="865" y="1037" type="curve"/>
      <point x="874" y="1091" type="line" smooth="yes"/>
      <point x="882" y="1139"/>
      <point x="886" y="1183"/>
      <point x="886" y="1222" type="curve" smooth="yes"/>
      <point x="886" y="1375"/>
      <point x="820" y="1461"/>
      <point x="637" y="1461" type="curve" smooth="yes"/>
      <point x="406" y="1461"/>
      <point x="315" y="1323"/>
      <point x="274" y="1090" type="curve"/>
      <point x="265" y="1037" type="line" smooth="yes"/>
      <point x="256" y="988"/>
      <point x="252" y="942"/>
      <point x="252" y="901" type="curve" smooth="yes"/>
      <point x="252" y="751"/>
      <point x="316" y="658"/>
    </contour>
    <contour>
      <point x="1501" y="97" type="curve" smooth="yes"/>
      <point x="1405" y="97"/>
      <point x="1376" y="148"/>
      <point x="1376" y="227" type="curve" smooth="yes"/>
      <point x="1376" y="261"/>
      <point x="1381" y="300"/>
      <point x="1389" y="343" type="curve" smooth="yes"/>
      <point x="1406" y="438" type="line" smooth="yes"/>
      <point x="1430" y="574"/>
      <point x="1459" y="668"/>
      <point x="1602" y="668" type="curve" smooth="yes"/>
      <point x="1702" y="668"/>
      <point x="1731" y="622"/>
      <point x="1731" y="548" type="curve" smooth="yes"/>
      <point x="1731" y="516"/>
      <point x="1725" y="478"/>
      <point x="1718" y="436" type="curve" smooth="yes"/>
      <point x="1701" y="343" type="line" smooth="yes"/>
      <point x="1676" y="202"/>
      <point x="1639" y="97"/>
    </contour>
    <contour>
      <point x="1481" y="-19" type="curve" smooth="yes"/>
      <point x="1711" y="-19"/>
      <point x="1809" y="131"/>
      <point x="1849" y="360" type="curve"/>
      <point x="1859" y="414" type="line" smooth="yes"/>
      <point x="1867" y="462"/>
      <point x="1871" y="506"/>
      <point x="1871" y="545" type="curve" smooth="yes"/>
      <point x="1871" y="698"/>
      <point x="1805" y="784"/>
      <point x="1622" y="784" type="curve"/>
      <point x="1391" y="784"/>
      <point x="1300" y="646"/>
      <point x="1259" y="413" type="curve"/>
      <point x="1249" y="360" type="line" smooth="yes"/>
      <point x="1240" y="311"/>
      <point x="1236" y="266"/>
      <point x="1236" y="225" type="curve" smooth="yes"/>
      <point x="1236" y="74"/>
      <point x="1300" y="-19"/>
    </contour>
    <contour>
      <point x="2280" y="97" type="curve" smooth="yes"/>
      <point x="2184" y="97"/>
      <point x="2155" y="148"/>
      <point x="2155" y="227" type="curve" smooth="yes"/>
      <point x="2155" y="261"/>
      <point x="2160" y="300"/>
      <point x="2168" y="343" type="curve" smooth="yes"/>
      <point x="2185" y="438" type="line" smooth="yes"/>
      <point x="2209" y="574"/>
      <point x="2238" y="668"/>
      <point x="2381" y="668" type="curve" smooth="yes"/>
      <point x="2481" y="668"/>
      <point x="2510" y="622"/>
      <point x="2510" y="548" type="curve" smooth="yes"/>
      <point x="2510" y="516"/>
      <point x="2504" y="478"/>
      <point x="2497" y="436" type="curve" smooth="yes"/>
      <point x="2480" y="343" type="line" smooth="yes"/>
      <point x="2455" y="202"/>
      <point x="2418" y="97"/>
    </contour>
    <contour>
      <point x="2260" y="-19" type="curve" smooth="yes"/>
      <point x="2490" y="-19"/>
      <point x="2588" y="131"/>
      <point x="2628" y="360" type="curve"/>
      <point x="2638" y="414" type="line" smooth="yes"/>
      <point x="2646" y="462"/>
      <point x="2650" y="506"/>
      <point x="2650" y="545" type="curve" smooth="yes"/>
      <point x="2650" y="698"/>
      <point x="2584" y="784"/>
      <point x="2401" y="784" type="curve"/>
      <point x="2170" y="784"/>
      <point x="2079" y="646"/>
      <point x="2038" y="413" type="curve"/>
      <point x="2028" y="360" type="line" smooth="yes"/>
      <point x="2019" y="311"/>
      <point x="2015" y="266"/>
      <point x="2015" y="225" type="curve" smooth="yes"/>
      <point x="2015" y="74"/>
      <point x="2079" y="-19"/>
    </contour>
    <contour>
      <point x="578" y="0" type="line"/>
      <point x="732" y="0" type="line"/>
      <point x="1525" y="1446" type="line"/>
      <point x="1376" y="1446" type="line"/>
    </contour>
  </outline>
</glyph>
<glyph name="guilsinglright" format="1">
  <advance width="768"/>
  <unicode hex="203A"/>
  <outline>
    <contour>
      <point x="248" y="80" type="line"/>
      <point x="600" y="530" type="line"/>
      <point x="399" y="980" type="line"/>
      <point x="247" y="910" type="line"/>
      <point x="387" y="530" type="line"/>
      <point x="113" y="150" type="line"/>
    </contour>
  </outline>
</glyph>
<glyph name="fraction" format="1">
  <advance width="768"/>
  <unicode hex="2044"/>
  <outline>
    <contour>
      <point x="-117" y="0" type="line"/>
      <point x="70" y="0" type="line"/>
      <point x="885" y="1506" type="line"/>
      <point x="702" y="1506" type="line"/>
    </contour>
  </outline>
</glyph>
<glyph name="foursuperior" format="1">
  <advance width="1050"/>
  <unicode hex="2074"/>
  <outline>
    <contour>
      <point x="518" y="694" type="line"/>
      <point x="637" y="694" type="line"/>
      <point x="669" y="877" type="line"/>
      <point x="797" y="877" type="line"/>
      <point x="815" y="979" type="line"/>
      <point x="687" y="979" type="line"/>
      <point x="724" y="1186" type="line"/>
      <point x="605" y="1186" type="line"/>
      <point x="568" y="979" type="line"/>
      <point x="326" y="979" type="line"/>
      <point x="764" y="1545" type="line"/>
      <point x="623" y="1545" type="line"/>
      <point x="163" y="972" type="line"/>
      <point x="146" y="877" type="line"/>
      <point x="550" y="877" type="line"/>
    </contour>
  </outline>
</glyph>
<glyph name="Euro" format="1">
  <advance width="1460"/>
  <unicode hex="20AC"/>
  <outline>
    <contour>
      <point x="760" y="819" type="line"/>
      <point x="784" y="953" type="line"/>
      <point x="42" y="953" type="line"/>
      <point x="18" y="819" type="line"/>
    </contour>
    <contour>
      <point x="705" y="505" type="line"/>
      <point x="728" y="639" type="line"/>
      <point x="-14" y="639" type="line"/>
      <point x="-37" y="505" type="line"/>
    </contour>
    <component base="C"/>
  </outline>
</glyph>
<glyph name="partialdiff" format="1">
  <advance width="1202"/>
  <unicode hex="2202"/>
  <outline>
    <contour>
      <point x="334" y="-20" type="curve"/>
      <point x="686" y="-20"/>
      <point x="993" y="385"/>
      <point x="1086" y="913" type="curve" smooth="yes"/>
      <point x="1097" y="974"/>
      <point x="1102" y="1031"/>
      <point x="1102" y="1082" type="curve" smooth="yes"/>
      <point x="1102" y="1375"/>
      <point x="935" y="1507"/>
      <point x="715" y="1507" type="curve" smooth="yes"/>
      <point x="606" y="1507"/>
      <point x="485" y="1475"/>
      <point x="364" y="1415" type="curve"/>
      <point x="379" y="1354" type="line"/>
      <point x="459" y="1389"/>
      <point x="539" y="1407"/>
      <point x="613" y="1407" type="curve" smooth="yes"/>
      <point x="783" y="1407"/>
      <point x="914" y="1308"/>
      <point x="914" y="1088" type="curve" smooth="yes"/>
      <point x="914" y="1041"/>
      <point x="906" y="978"/>
      <point x="895" y="931" type="curve"/>
      <point x="438" y="924"/>
      <point x="121" y="568"/>
      <point x="73" y="294" type="curve" smooth="yes"/>
      <point x="69" y="270"/>
      <point x="66" y="246"/>
      <point x="66" y="223" type="curve" smooth="yes"/>
      <point x="66" y="84"/>
      <point x="149" y="-20"/>
    </contour>
    <contour>
      <point x="369" y="98" type="curve" smooth="yes"/>
      <point x="310" y="98"/>
      <point x="283" y="144"/>
      <point x="283" y="211" type="curve" smooth="yes"/>
      <point x="283" y="228"/>
      <point x="285" y="246"/>
      <point x="288" y="266" type="curve" smooth="yes"/>
      <point x="325" y="475"/>
      <point x="551" y="808"/>
      <point x="871" y="828" type="curve"/>
      <point x="800" y="542"/>
      <point x="611" y="98"/>
    </contour>
  </outline>
</glyph>
<glyph name="product" format="1">
  <advance width="1792"/>
  <unicode hex="220F"/>
  <outline>
    <contour>
      <point x="589" y="319" type="line"/>
      <point x="720" y="319" type="line"/>
      <point x="779" y="652" type="line"/>
      <point x="957" y="652" type="line" smooth="yes"/>
      <point x="1182" y="652"/>
      <point x="1257" y="764"/>
      <point x="1278" y="908" type="curve" smooth="yes"/>
      <point x="1281" y="929"/>
      <point x="1283" y="948"/>
      <point x="1283" y="966" type="curve" smooth="yes"/>
      <point x="1283" y="1098"/>
      <point x="1196" y="1153"/>
      <point x="1058" y="1153" type="curve" smooth="yes"/>
      <point x="736" y="1153" type="line"/>
    </contour>
    <contour>
      <point x="795" y="742" type="line"/>
      <point x="851" y="1062" type="line"/>
      <point x="1046" y="1062" type="line" smooth="yes"/>
      <point x="1132" y="1062"/>
      <point x="1150" y="1008"/>
      <point x="1150" y="956" type="curve" smooth="yes"/>
      <point x="1150" y="936"/>
      <point x="1148" y="917"/>
      <point x="1145" y="901" type="curve" smooth="yes"/>
      <point x="1141" y="877" type="line"/>
      <point x="1128" y="814"/>
      <point x="1095" y="742"/>
      <point x="981" y="742" type="curve" smooth="yes"/>
    </contour>
    <contour>
      <point x="785" y="82" type="curve" smooth="yes"/>
      <point x="464" y="82"/>
      <point x="258" y="296"/>
      <point x="258" y="597" type="curve" smooth="yes"/>
      <point x="258" y="637"/>
      <point x="261" y="679"/>
      <point x="269" y="722" type="curve" smooth="yes"/>
      <point x="333" y="1086"/>
      <point x="647" y="1361"/>
      <point x="1011" y="1361" type="curve" smooth="yes"/>
      <point x="1334" y="1361"/>
      <point x="1537" y="1148"/>
      <point x="1537" y="848" type="curve" smooth="yes"/>
      <point x="1537" y="808"/>
      <point x="1534" y="765"/>
      <point x="1526" y="722" type="curve" smooth="yes"/>
      <point x="1462" y="357"/>
      <point x="1151" y="82"/>
    </contour>
    <contour>
      <point x="766" y="-14" type="curve" smooth="yes"/>
      <point x="1182" y="-14"/>
      <point x="1558" y="303"/>
      <point x="1632" y="722" type="curve" smooth="yes"/>
      <point x="1640" y="769"/>
      <point x="1644" y="815"/>
      <point x="1644" y="859" type="curve" smooth="yes"/>
      <point x="1644" y="1206"/>
      <point x="1395" y="1456"/>
      <point x="1026" y="1456" type="curve" smooth="yes"/>
      <point x="613" y="1456"/>
      <point x="234" y="1139"/>
      <point x="160" y="722" type="curve" smooth="yes"/>
      <point x="152" y="675"/>
      <point x="148" y="629"/>
      <point x="148" y="585" type="curve" smooth="yes"/>
      <point x="148" y="236"/>
      <point x="399" y="-14"/>
    </contour>
  </outline>
</glyph>
<glyph name="infinity" format="1">
  <advance width="1650"/>
  <unicode hex="221E"/>
  <outline>
    <contour>
      <point x="310" y="485" type="curve" smooth="yes"/>
      <point x="488" y="485"/>
      <point x="803" y="736"/>
      <point x="803" y="736" type="curve"/>
      <point x="803" y="736"/>
      <point x="1044" y="485"/>
      <point x="1222" y="485" type="curve" smooth="yes"/>
      <point x="1425" y="485"/>
      <point x="1556" y="652"/>
      <point x="1586" y="820" type="curve" smooth="yes"/>
      <point x="1590" y="844"/>
      <point x="1592" y="868"/>
      <point x="1592" y="891" type="curve" smooth="yes"/>
      <point x="1592" y="1033"/>
      <point x="1513" y="1158"/>
      <point x="1340" y="1158" type="curve" smooth="yes"/>
      <point x="1162" y="1158"/>
      <point x="838" y="933"/>
      <point x="838" y="933" type="curve"/>
      <point x="838" y="933"/>
      <point x="606" y="1158"/>
      <point x="428" y="1158" type="curve" smooth="yes"/>
      <point x="225" y="1158"/>
      <point x="94" y="990"/>
      <point x="64" y="822" type="curve" smooth="yes"/>
      <point x="60" y="798"/>
      <point x="58" y="774"/>
      <point x="58" y="750" type="curve" smooth="yes"/>
      <point x="58" y="609"/>
      <point x="136" y="485"/>
    </contour>
    <contour>
      <point x="215" y="770" type="curve" smooth="yes"/>
      <point x="215" y="900"/>
      <point x="296" y="1027"/>
      <point x="412" y="1027" type="curve" smooth="yes"/>
      <point x="486" y="1027"/>
      <point x="718" y="829"/>
      <point x="718" y="829" type="curve"/>
      <point x="718" y="829"/>
      <point x="414" y="616"/>
      <point x="340" y="616" type="curve" smooth="yes"/>
      <point x="253" y="616"/>
      <point x="215" y="687"/>
    </contour>
    <contour>
      <point x="1422" y="872" type="curve" smooth="yes"/>
      <point x="1422" y="742"/>
      <point x="1341" y="616"/>
      <point x="1225" y="616" type="curve" smooth="yes"/>
      <point x="1151" y="616"/>
      <point x="920" y="826"/>
      <point x="920" y="826" type="curve"/>
      <point x="920" y="826"/>
      <point x="1223" y="1027"/>
      <point x="1297" y="1027" type="curve" smooth="yes"/>
      <point x="1384" y="1027"/>
      <point x="1422" y="955"/>
    </contour>
  </outline>
</glyph>
<glyph name="notequal" format="1">
  <advance width="768"/>
  <unicode hex="2260"/>
  <outline>
    <contour>
      <point x="42" y="205" type="line"/>
      <point x="189" y="205" type="line"/>
      <point x="738" y="1186" type="line"/>
      <point x="595" y="1186" type="line"/>
    </contour>
    <component base="equal" xOffset="-241"/>
  </outline>
</glyph>
